<?xml version="1.0" encoding="utf-8"?>
<!-- Generator: Adobe Illustrator 16.0.0, SVG Export Plug-In . SVG Version: 6.00 Build 0)  -->
<!DOCTYPE svg PUBLIC "-//W3C//DTD SVG 1.1//EN" "http://www.w3.org/Graphics/SVG/1.1/DTD/svg11.dtd">
<svg version="1.1" id="Capa_1" fill="#fff" xmlns="http://www.w3.org/2000/svg" xmlns:xlink="http://www.w3.org/1999/xlink" x="0px" y="0px"
	 width="100px" height="100px" viewBox="0 0 100 100" enable-background="new 0 0 100 100" xml:space="preserve">
<path d="M89.172,39.816L21.909,1.534C14.774-2.538,7.5,1.916,7.5,9.927v79.917c0,6.787,4.418,9.883,8.525,9.883
	c1.934,0,3.904-0.612,5.861-1.802l67.565-41.357c3.396-2.086,5.304-5.175,5.243-8.475C94.639,44.789,92.628,41.77,89.172,39.816z
	 M84.924,49.181L17.362,90.527c-0.455,0.278-0.812,0.419-1.058,0.487c-0.066-0.244-0.133-0.624-0.133-1.171V9.93
	c0-0.822,0.149-1.237,0.149-1.339c0.265,0.017,0.729,0.152,1.313,0.484l67.253,38.282c0.829,0.475,1.074,0.885,1.154,0.796
	C85.998,48.265,85.716,48.686,84.924,49.181z"/>
</svg>
