<?xml version="1.0" encoding="utf-8"?>
<!-- Generator: Adobe Illustrator 16.0.0, SVG Export Plug-In . SVG Version: 6.00 Build 0)  -->
<!DOCTYPE svg PUBLIC "-//W3C//DTD SVG 1.1//EN" "http://www.w3.org/Graphics/SVG/1.1/DTD/svg11.dtd">
<svg version="1.1" id="Capa_1" xmlns="http://www.w3.org/2000/svg" xmlns:xlink="http://www.w3.org/1999/xlink" x="0px" y="0px"
	 width="20px" height="20px" fill="#fff" viewBox="0 0 16 16" enable-background="new 0 0 16 16" xml:space="preserve">
<path d="M9.545,7.985l6.103-6.104c0.43-0.429,0.43-1.129,0-1.559c-0.428-0.429-1.13-0.429-1.56,0L7.985,6.426L1.881,0.322
	c-0.43-0.429-1.129-0.429-1.559,0c-0.43,0.43-0.43,1.13,0,1.559l6.104,6.104l-6.104,6.103c-0.43,0.43-0.43,1.131,0,1.56
	c0.429,0.43,1.129,0.43,1.559,0l6.104-6.103l6.103,6.103c0.43,0.43,1.132,0.43,1.56,0c0.43-0.429,0.43-1.13,0-1.56L9.545,7.985z"/>
</svg>
