<?xml version="1.0" encoding="utf-8"?>
<!-- Generator: Adobe Illustrator 16.0.0, SVG Export Plug-In . SVG Version: 6.00 Build 0)  -->
<!DOCTYPE svg PUBLIC "-//W3C//DTD SVG 1.1//EN" "http://www.w3.org/Graphics/SVG/1.1/DTD/svg11.dtd">
<svg version="1.1" id="Layer_1" xmlns="http://www.w3.org/2000/svg" xmlns:xlink="http://www.w3.org/1999/xlink" x="0px" y="0px"
	 width="20px" height="20px" fill="#222" viewBox="0 0 50 50" enable-background="new 0 0 50 50" xml:space="preserve">
<path d="M25-0.055c-12.127,0-21.96,9.832-21.96,21.959c0,6.273,2.645,11.917,6.862,15.917L9.167,50.054l10.431-6.887
	c1.731,0.438,3.536,0.696,5.403,0.696c12.129,0,21.961-9.833,21.961-21.96C46.961,9.777,37.129-0.055,25-0.055z M22.878,20.57
	c0,2.255-0.469,4.034-1.408,5.339c-0.938,1.304-2.546,2.458-4.826,3.456l-1.719-3.253c1.402-0.659,2.372-1.313,2.906-1.966
	c0.537-0.653,0.835-1.424,0.896-2.314h-3.802v-7.387h7.953V20.57z M35.074,20.57c0,2.255-0.469,4.034-1.408,5.339
	c-0.938,1.306-2.547,2.458-4.826,3.456l-1.719-3.253c1.402-0.659,2.373-1.313,2.908-1.966c0.537-0.653,0.834-1.424,0.896-2.314
	h-3.803v-7.387h7.953v6.125H35.074z"/>
</svg>
