<?xml version="1.0" encoding="utf-8"?>
<!-- Generator: Adobe Illustrator 16.0.0, SVG Export Plug-In . SVG Version: 6.00 Build 0)  -->
<!DOCTYPE svg PUBLIC "-//W3C//DTD SVG 1.1//EN" "http://www.w3.org/Graphics/SVG/1.1/DTD/svg11.dtd">
<svg version="1.1" id="Layer_1" xmlns="http://www.w3.org/2000/svg" xmlns:xlink="http://www.w3.org/1999/xlink" x="0px" y="0px"
	 width="20px" height="20px" fill="#fff" viewBox="0 0 50 50" enable-background="new 0 0 50 50" xml:space="preserve">
<path d="M18.725,41.046h8.304v8.924h-8.304V41.046z M37.891,2.896c-2.162-1.91-6.193-2.867-12.096-2.867
	c-6.672,0-11.157,0.924-13.453,2.775c-2.296,1.846-3.445,5.442-3.445,10.789L8.86,15.406h8.23l-0.036-1.886
	c0-2.561,0.544-4.275,1.63-5.133c1.086-0.857,3.262-1.289,6.529-1.289c3.48,0,5.724,0.41,6.726,1.215
	c1.004,0.811,1.506,2.62,1.506,5.425c0,3.387-1.342,5.634-4.025,6.748l-3.229,1.376c-3.383,1.405-5.475,2.764-6.274,4.083
	c-0.794,1.314-1.196,4.031-1.196,8.144h8.417v-1.162c0-2.538,1.773-4.557,5.33-6.053c3.648-1.548,6.01-3.14,7.074-4.767
	c1.062-1.633,1.598-4.492,1.598-8.579C41.141,8.346,40.055,4.804,37.891,2.896z"/>
</svg>
