<?xml version="1.0" encoding="utf-8"?>
<!-- Generator: Adobe Illustrator 16.0.0, SVG Export Plug-In . SVG Version: 6.00 Build 0)  -->
<!DOCTYPE svg PUBLIC "-//W3C//DTD SVG 1.1//EN" "http://www.w3.org/Graphics/SVG/1.1/DTD/svg11.dtd">
<svg version="1.1" id="Layer_6" xmlns="http://www.w3.org/2000/svg" xmlns:xlink="http://www.w3.org/1999/xlink" x="0px" y="0px"
	 width="64px" height="64px" viewBox="0 0 100 100" enable-background="new 0 0 100 100" xml:space="preserve">
<rect fill="#222222" width="100" height="100"/>
<path fill="#FFFFFF" d="M66.175,45.814V32.445c0-8.92-7.256-16.176-16.175-16.176c-8.919,0-16.176,7.256-16.176,16.176v13.369
	c-3.862,4.03-6.244,9.489-6.244,15.499c0,12.361,10.056,22.42,22.42,22.42c12.362,0,22.42-10.059,22.42-22.42
	C72.42,55.303,70.038,49.844,66.175,45.814z M50,21.337c6.124,0,11.107,4.982,11.107,11.107v9.406
	c-3.276-1.878-7.066-2.958-11.107-2.958c-4.041,0-7.83,1.08-11.107,2.958v-9.406C38.893,26.32,43.875,21.337,50,21.337z M50,78.663
	c-9.568,0-17.351-7.783-17.351-17.351c0-5.298,2.387-10.044,6.141-13.229h0.103v-0.087c3.011-2.517,6.885-4.034,11.107-4.034
	c4.222,0,8.095,1.517,11.107,4.034v0.088h0.103c3.752,3.186,6.141,7.931,6.141,13.228C67.351,70.88,59.567,78.663,50,78.663z
	 M64.128,61.798h0.627v-1.398h-0.652c-0.067-1.029-0.245-2.029-0.521-2.988l0.601-0.194l-0.434-1.332l-0.619,0.202
	c-0.378-0.949-0.852-1.85-1.412-2.686l0.505-0.367l-0.824-1.132l-0.52,0.378c-0.646-0.783-1.375-1.493-2.172-2.123l0.358-0.494
	l-1.133-0.824l-0.366,0.505c-0.851-0.547-1.761-1.008-2.723-1.365l0.178-0.549L53.69,47l-0.183,0.558
	c-0.971-0.255-1.981-0.41-3.021-0.454V46.56h-1.401v0.551c-1.042,0.057-2.055,0.228-3.027,0.497l-0.154-0.477l-1.332,0.433
	l0.156,0.484c-0.967,0.375-1.885,0.849-2.738,1.415l-0.27-0.371l-1.133,0.823l0.276,0.379c-0.803,0.653-1.531,1.394-2.172,2.204
	l-0.344-0.248l-0.823,1.131l0.351,0.254c-0.559,0.867-1.028,1.796-1.392,2.777l-0.368-0.119l-0.432,1.331l0.381,0.123
	c-0.258,0.99-0.41,2.021-0.45,3.082h-0.371v1.398h0.387c0.064,1.061,0.247,2.087,0.529,3.073l-0.343,0.11l0.433,1.332l0.361-0.118
	c0.388,0.975,0.878,1.897,1.46,2.754l-0.293,0.214l0.822,1.133l0.317-0.229c0.666,0.799,1.42,1.521,2.244,2.157l-0.226,0.312
	l1.131,0.823l0.243-0.335c0.874,0.548,1.81,1.003,2.796,1.353l-0.126,0.39l1.33,0.433l0.137-0.421
	c0.986,0.243,2.013,0.381,3.067,0.408v0.453h0.002h1.397l0,0v-0.486c1.046-0.074,2.062-0.262,3.032-0.551l0.151,0.466l1.332-0.433
	l-0.163-0.498c0.958-0.391,1.86-0.883,2.699-1.461l0.315,0.431l1.132-0.821l-0.334-0.461c0.78-0.659,1.488-1.4,2.109-2.211
	l0.464,0.337l0.824-1.132l-0.489-0.355c0.534-0.857,0.981-1.776,1.328-2.741l0.571,0.184l0.432-1.33l-0.6-0.195
	C63.957,63.841,64.096,62.836,64.128,61.798z M49.871,69.631c-4.164,0-7.539-3.376-7.539-7.539c0-3.256,2.071-6.021,4.962-7.076
	l2.576-5.608l2.576,5.608c2.893,1.055,4.961,3.82,4.961,7.076C57.407,66.255,54.033,69.631,49.871,69.631z M55.033,62.092
	c0,2.779-2.255,5.033-5.033,5.033c-2.779,0-5.033-2.254-5.033-5.033c0-2.778,2.253-5.031,5.033-5.031
	C52.778,57.06,55.033,59.312,55.033,62.092z"/>
</svg>
