
<svg version="1.1" xmlns="http://www.w3.org/2000/svg" xmlns:xlink="http://www.w3.org/1999/xlink" x="0px" y="0px" width="200px"
	 height="66px" viewBox="0 0 368 122" enable-background="new 0 0 368 122" xml:space="preserve">
<g id="Group_1_1_">
	<g id="Rounded_Rectangle_3">
		<g>
			<path fill="#C50003" d="M348,38H20C8.954,38,0,46.954,0,58v44c0,11.046,8.954,20,20,20h328c11.046,0,20-8.954,20-20V58
				C368,46.954,359.046,38,348,38z"/>
		</g>
	</g>
	<g id="Lifeinvader">
		<g>
			<path fill="#FFFFFF" d="M47.558,106.568c-2.16,0.504-8.425,1.008-12.241,1.008c-9.361,0-16.633-2.521-16.633-14.762V54.939
				c0-0.792,0.648-1.44,1.44-1.44h7.129c0.792,0,1.44,0.648,1.44,1.44v37.875c0,4.753,1.44,6.192,5.617,6.192h13.249
				c0.792,0,1.44,0.648,1.44,1.44v4.608C48.998,106.063,48.638,106.352,47.558,106.568z"/>
			<path fill="#FFFFFF" d="M63.612,60.988h-6.985c-0.792,0-1.512-0.648-1.512-1.44v-6.336c0-0.792,0.72-1.44,1.512-1.44h6.985
				c0.792,0,1.44,0.648,1.44,1.44v6.336C65.052,60.34,64.404,60.988,63.612,60.988z M63.396,107h-6.625
				c-0.792,0-1.44-0.72-1.44-1.512v-37.66c0-0.792,0.648-1.439,1.44-1.439h6.625c0.792,0,1.44,0.647,1.44,1.439v37.66
				C64.836,106.28,64.188,107,63.396,107z"/>
			<path fill="#FFFFFF" d="M95.652,58.54h-3.24c-3.456,0-4.248,0.792-4.248,4.32v3.528h6.913c0.792,0,1.44,0.647,1.44,1.439v4.321
				c0,0.792-0.648,1.368-1.44,1.368h-6.913v31.971c0,0.792-0.648,1.512-1.44,1.512h-6.552c-0.792,0-1.512-0.72-1.512-1.512V73.518
				l-6.409-1.009c-0.792-0.144-1.44-0.576-1.44-1.368v-3.312c0-0.792,0.648-1.439,1.44-1.439h6.409V62.86
				c0-9.289,4.968-11.521,12.457-11.521c1.728,0,2.952,0.288,4.32,0.576c0.576,0.144,1.296,0.504,1.296,1.152v4.249
				C96.732,58.18,96.156,58.54,95.652,58.54z"/>
			<path fill="#FFFFFF" d="M134.604,90.007H111.13v0.216c0,4.176,1.729,9.145,8.641,9.145c5.256,0,10.225-0.432,13.249-0.72
				c0.072,0,0.144,0,0.216,0c0.72,0,1.296,0.359,1.296,1.08v4.752c0,1.152-0.216,1.656-1.512,1.872
				c-4.68,0.864-7.489,1.225-13.969,1.225c-7.201,0-17.425-3.889-17.425-18.073v-5.329c0-11.232,6.264-18.289,17.281-18.289
				c11.089,0,17.138,7.561,17.138,18.289v4.032C136.044,89.358,135.612,90.007,134.604,90.007z M126.467,82.95
				c0-5.617-3.096-8.857-7.561-8.857s-7.705,3.169-7.705,8.857v0.288h15.265V82.95z"/>
			<path fill="#FFFFFF" d="M147.057,61.204h-0.432c-0.72,0-1.368-0.576-1.368-1.368v-5.329c0-0.72,0.648-1.368,1.368-1.368h0.432
				c0.72,0,1.368,0.648,1.368,1.368v5.329C148.425,60.628,147.777,61.204,147.057,61.204z M147.057,107h-0.432
				c-0.72,0-1.368-0.648-1.368-1.368V69.701c0-0.721,0.648-1.368,1.368-1.368h0.432c0.72,0,1.368,0.647,1.368,1.368v35.931
				C148.425,106.352,147.777,107,147.057,107z"/>
			<path fill="#FFFFFF" d="M185.291,107h-0.505c-0.72,0-1.296-0.648-1.296-1.368V81.726c0-8.208-4.32-10.944-9.721-10.944
				c-3.672,0-7.776,1.224-11.377,2.952v31.898c0,0.72-0.648,1.368-1.368,1.368h-0.432c-0.72,0-1.368-0.648-1.368-1.368V69.772
				c0-0.792,0.504-1.439,1.296-1.439h0.576c0.792,0,1.296,0.647,1.296,1.439v1.152c3.744-1.8,7.849-2.952,11.593-2.952
				c6.913,0,12.673,3.744,12.673,13.753v23.906C186.659,106.352,186.083,107,185.291,107z"/>
			<path fill="#FFFFFF" d="M223.378,70.133l-9.433,32.763c-1.08,3.816-2.808,4.536-4.896,4.536c-2.016,0-3.96-0.72-5.04-4.536
				l-9.433-32.763c-0.072-0.216-0.072-0.432-0.072-0.576c0-0.72,0.432-1.224,1.152-1.224h0.72c0.504,0,1.008,0.288,1.296,1.296
				l9.217,32.475c0.648,2.16,1.368,2.592,2.16,2.592s1.368-0.432,2.017-2.592l9.217-32.475c0.288-1.008,0.792-1.296,1.296-1.296
				h0.864c0.72,0,1.008,0.432,1.008,1.08C223.45,69.629,223.45,69.917,223.378,70.133z"/>
			<path fill="#FFFFFF" d="M254.914,107h-0.36c-0.792,0-1.44-0.648-1.44-1.44v-1.8c-3.528,1.944-7.776,3.672-12.24,3.672
				c-5.401,0-11.018-2.592-11.018-11.593v-0.936c0-7.417,4.681-11.089,17.786-11.089h5.544v-2.593c0-7.488-2.088-10.44-9.072-10.44
				c-4.753,0-6.841,0.288-10.226,0.647c-0.071,0-0.144,0-0.288,0c-0.647,0-1.368-0.288-1.368-1.08v-0.432
				c0-0.792,0.576-1.152,1.656-1.296c3.024-0.36,5.473-0.648,10.226-0.648c9.721,0,12.24,5.473,12.24,13.249v24.338
				C256.354,106.352,255.706,107,254.914,107z M253.186,86.622h-5.544c-10.873,0-14.618,2.16-14.618,8.281v0.936
				c0,6.696,3.528,8.785,7.85,8.785c4.032,0,7.488-1.08,12.312-3.673V86.622z"/>
			<path fill="#FFFFFF" d="M291.562,106.063c-3.169,0.648-7.993,1.368-12.098,1.368c-9.937,0-14.113-7.128-14.113-17.497v-4.753
				c0-11.377,4.753-17.209,14.113-17.209c2.809,0,7.129,0.432,10.009,1.08V54.868c0-0.72,0.505-1.368,1.225-1.368h0.72
				c0.721,0,1.225,0.648,1.225,1.368v49.828C292.642,105.56,292.426,105.848,291.562,106.063z M289.473,71.717
				c-2.735-0.576-7.2-0.936-10.009-0.936c-7.92,0-10.944,4.896-10.944,14.4v4.753c0,9.289,2.88,14.689,10.944,14.689
				c3.457,0,7.417-0.504,10.009-0.937V71.717z"/>
			<path fill="#FFFFFF" d="M329.146,88.423h-24.338v1.512c0,12.097,5.832,14.689,13.032,14.689c3.169,0,7.129-0.504,10.657-1.225
				c0.145,0,0.288-0.071,0.433-0.071c0.575,0,1.08,0.287,1.08,1.008v0.504c0,0.792-0.288,1.152-1.368,1.368
				c-3.457,0.72-7.562,1.224-10.802,1.224c-8.929,0-16.201-3.888-16.201-17.497v-4.753c0-9.937,5.041-17.209,14.546-17.209
				c9.937,0,14.329,6.912,14.329,17.138v1.944C330.514,87.847,329.865,88.423,329.146,88.423z M327.345,85.11
				c0-9.073-3.023-14.329-11.16-14.329c-7.993,0-11.377,5.832-11.377,14.4v0.36h22.537V85.11z"/>
			<path fill="#FFFFFF" d="M352.688,70.781c-2.736,0-5.761,0.647-10.009,3.312v31.539c0,0.72-0.648,1.368-1.368,1.368h-0.433
				c-0.72,0-1.368-0.648-1.368-1.368V69.772c0-0.792,0.504-1.439,1.296-1.439h0.576c0.792,0,1.297,0.647,1.297,1.439v1.513
				c3.672-2.376,6.48-3.312,10.009-3.312c1.151,0,1.943,0.216,1.943,1.08v0.576C354.631,70.564,353.839,70.781,352.688,70.781z"/>
		</g>
	</g>
</g>
<g id="stalk_me_on">
	<g>
		<path fill="#C50003" d="M100.167,27.924c-1.4,0-4.417-0.18-6.427-0.72c-0.431-0.108-0.682-0.396-0.682-0.828v-2.16
			c0-0.288,0.251-0.576,0.61-0.576c0.072,0,0.107,0,0.144,0c1.723,0.216,4.955,0.396,6.032,0.396c2.226,0,2.549-0.756,2.549-1.728
			c0-0.684-0.431-1.116-1.58-1.836l-4.918-3.023c-1.759-1.08-3.016-2.88-3.016-4.968c0-3.599,2.262-5.399,6.822-5.399
			c2.908,0,4.56,0.324,6.391,0.72c0.431,0.108,0.646,0.396,0.646,0.828v2.088c0,0.432-0.215,0.684-0.575,0.684
			c-0.072,0-0.107,0-0.144,0c-1.005-0.144-3.877-0.432-5.924-0.432c-1.724,0-2.478,0.396-2.478,1.512
			c0,0.576,0.539,0.936,1.436,1.476l4.704,2.879c3.016,1.836,3.447,3.636,3.447,5.472C107.205,25.44,104.871,27.924,100.167,27.924z
			"/>
		<path fill="#C50003" d="M121.784,27.672c-0.862,0.144-1.652,0.252-2.441,0.252c-4.057,0-5.709-0.9-5.709-5.724V10.898
			l-3.375-0.504c-0.395-0.072-0.718-0.324-0.718-0.72v-1.62c0-0.396,0.323-0.72,0.718-0.72h3.375V4.383
			c0-0.396,0.323-0.648,0.718-0.72l3.339-0.576c0.036,0,0.108,0,0.144,0c0.323,0,0.575,0.18,0.575,0.54v3.708h3.231
			c0.395,0,0.718,0.324,0.718,0.72v2.124c0,0.396-0.323,0.72-0.718,0.72h-3.231V22.2c0,1.8,0.107,2.016,1.4,2.016h1.903
			c0.467,0,0.754,0.18,0.754,0.54v2.268C122.466,27.384,122.251,27.6,121.784,27.672z"/>
		<path fill="#C50003" d="M139.99,27.636h-3.052c-0.395,0-0.718-0.324-0.718-0.72V26.34c-1.651,1.008-3.339,1.584-5.062,1.584
			c-2.98,0-6.211-1.152-6.211-6.011v-0.144c0-4.104,2.514-6.228,8.761-6.228h2.262v-1.583c0-2.34-1.041-2.916-3.159-2.916
			c-2.298,0-4.667,0.144-5.853,0.288c-0.072,0-0.144,0-0.18,0c-0.359,0-0.646-0.108-0.646-0.612V8.414
			c0-0.396,0.215-0.648,0.682-0.756c1.436-0.288,3.519-0.576,5.996-0.576c5.098,0,7.899,2.268,7.899,6.875v12.958
			C140.708,27.312,140.385,27.636,139.99,27.636z M135.968,18.709h-2.262c-3.267,0-3.985,1.044-3.985,3.06v0.144
			c0,1.764,0.79,2.231,2.585,2.231c1.292,0,2.621-0.432,3.662-1.008V18.709z"/>
		<path fill="#C50003" d="M149.614,27.636h-3.339c-0.395,0-0.718-0.36-0.718-0.756V0.963c0-0.396,0.323-0.72,0.718-0.72h3.339
			c0.395,0,0.682,0.324,0.682,0.72V26.88C150.296,27.276,150.009,27.636,149.614,27.636z"/>
		<path fill="#C50003" d="M170.942,27.636h-4.38c-0.395,0-0.826-0.396-1.041-0.72l-5.637-8.207v8.171
			c0,0.396-0.323,0.756-0.718,0.756h-3.303c-0.395,0-0.718-0.36-0.718-0.756V0.963c0-0.396,0.323-0.72,0.718-0.72h3.303
			c0.395,0,0.718,0.324,0.718,0.72v15.01l6.139-8.207c0.251-0.324,0.611-0.432,0.826-0.432h4.021c0.359,0,0.539,0.144,0.539,0.396
			c0,0.108-0.036,0.216-0.144,0.36l-7.217,8.891l7.289,9.935c0.072,0.108,0.108,0.18,0.108,0.288
			C171.445,27.42,171.23,27.636,170.942,27.636z"/>
		<path fill="#C50003" d="M208.897,27.636h-3.304c-0.395,0-0.718-0.36-0.718-0.756V14.642c0-2.772-0.574-3.492-2.585-3.492
			c-0.683,0-2.047,0.216-3.339,0.9c0.107,0.792,0.144,1.692,0.144,2.592V26.88c0,0.396-0.323,0.756-0.719,0.756h-3.303
			c-0.396,0-0.718-0.36-0.718-0.756V14.642c0-2.772-0.467-3.492-2.478-3.492c-0.754,0-1.831,0.396-3.304,1.188V26.88
			c0,0.396-0.323,0.756-0.718,0.756h-3.303c-0.396,0-0.718-0.36-0.718-0.756V8.054c0-0.396,0.323-0.72,0.718-0.72h3.123
			c0.396,0,0.719,0.324,0.719,0.72V8.81c1.508-0.972,3.016-1.728,5.134-1.728c2.047,0,3.375,0.612,4.201,1.62
			c1.831-1.008,3.446-1.62,5.924-1.62c4.883,0,5.96,3.347,5.96,7.559V26.88C209.615,27.276,209.292,27.636,208.897,27.636z"/>
		<path fill="#C50003" d="M230.12,19.141h-11.704v0.108c0,2.087,0.861,4.571,4.309,4.571c2.621,0,5.098-0.216,6.606-0.36
			c0.035,0,0.071,0,0.107,0c0.359,0,0.646,0.18,0.646,0.54v2.376c0,0.576-0.108,0.828-0.754,0.936
			c-2.334,0.432-3.734,0.612-6.966,0.612c-3.591,0-8.688-1.944-8.688-9.035v-2.664c0-5.615,3.123-9.143,8.616-9.143
			c5.529,0,8.546,3.779,8.546,9.143v2.016C230.839,18.817,230.623,19.141,230.12,19.141z M226.063,15.613
			c0-2.808-1.544-4.427-3.771-4.427c-2.226,0-3.841,1.583-3.841,4.427v0.144h7.611V15.613z"/>
		<path fill="#C50003" d="M249.656,27.852c-4.919,0-7.396-3.167-7.396-8.603v-2.52c0-5.435,2.478-8.603,7.396-8.603
			s7.396,3.168,7.396,8.603v2.52C257.053,24.684,254.575,27.852,249.656,27.852z M255.473,16.729c0-4.427-1.616-7.199-5.816-7.199
			c-4.201,0-5.816,2.772-5.816,7.199v2.52c0,4.427,1.615,7.199,5.816,7.199c4.2,0,5.816-2.771,5.816-7.199V16.729z"/>
		<path fill="#C50003" d="M274.54,27.636h-0.252c-0.358,0-0.646-0.324-0.646-0.684v-11.95c0-4.104-2.154-5.472-4.848-5.472
			c-1.831,0-3.877,0.612-5.673,1.476v15.946c0,0.36-0.323,0.684-0.682,0.684h-0.216c-0.359,0-0.682-0.324-0.682-0.684V9.026
			c0-0.396,0.251-0.72,0.646-0.72h0.288c0.395,0,0.646,0.324,0.646,0.72v0.576c1.867-0.9,3.914-1.476,5.781-1.476
			c3.446,0,6.318,1.872,6.318,6.875v11.95C275.222,27.312,274.935,27.636,274.54,27.636z"/>
	</g>
</g>
</svg>
