<?xml version="1.0" encoding="utf-8"?>
<!-- Generator: Adobe Illustrator 16.0.0, SVG Export Plug-In . SVG Version: 6.00 Build 0)  -->
<!DOCTYPE svg PUBLIC "-//W3C//DTD SVG 1.1//EN" "http://www.w3.org/Graphics/SVG/1.1/DTD/svg11.dtd">
<svg class="vforie" version="1.1" xmlns="http://www.w3.org/2000/svg" xmlns:xlink="http://www.w3.org/1999/xlink" x="0px" y="0px"
	 width="170px" height="170px"  viewBox="96.379 127.765 228.667 229.333"
	 enable-background="new 96.379 127.765 228.667 229.333" xml:space="preserve">
<g id="hand" fill="#222" sodipodi:docname="Nouveau document 10" inkscape:version="0.48.0 r9654" xmlns:dc="http://purl.org/dc/elements/1.1/" xmlns:cc="http://creativecommons.org/ns#" xmlns:rdf="http://www.w3.org/1999/02/22-rdf-syntax-ns#" xmlns:svg="http://www.w3.org/2000/svg" xmlns:sodipodi="http://sodipodi.sourceforge.net/DTD/sodipodi-0.dtd" xmlns:inkscape="http://www.inkscape.org/namespaces/inkscape">
	<g id="layer1" transform="translate(-336.34925,-459.11703)" inkscape:groupmode="layer" inkscape:label="Calque 1">
		<g id="path4099_1_">
			<path d="M576.45,810.183c-1.081,0-2.188-0.152-3.315-0.459c-0.533-0.145-0.848-0.693-0.703-1.227s0.694-0.85,1.227-0.703
				c2.956,0.803,5.61,0.38,8.122-1.286c6.986-4.633,11.085-18.147,12.481-28.354l-0.074-1.503
				c-0.644-13.247-0.998-20.544-10.069-28.54c-0.198-0.174-0.318-0.419-0.337-0.683c-0.928-13.682,5.939-41.034,11.456-63.013
				c3.874-15.431,7.533-30.006,6.718-33.331c-0.034-0.141-0.037-0.286-0.01-0.429c1.793-9.269-2.161-14.474-6.595-15.388
				c-4.895-1.01-11.283,2.992-13.729,14.167c-0.676,4.605-10.895,56.426-19.668,60.438c-0.901,0.413-1.809,0.386-2.633-0.082
				c-2.526-0.832-4.276-8.453-8.101-27.604c-2.865-14.348-6.113-30.609-9.794-37.781c-0.051-0.1-0.085-0.206-0.101-0.315
				c-0.717-5.028-3.938-9.28-8.206-10.832c-2.932-1.064-5.77-0.637-7.79,1.177c-2.019,1.812-4.965,6.641-2.021,18.609
				c0.01,0.039,0.018,0.078,0.021,0.118c2.028,16.613,7.181,38.656,15.752,67.388c0.527,1.768,0.595,3.353,0.198,4.712
				c-0.154,0.53-0.709,0.836-1.239,0.681c-0.53-0.154-0.835-0.709-0.681-1.239c0.286-0.984,0.221-2.188-0.194-3.581
				c-8.594-28.807-13.767-50.938-15.813-67.658c-3.169-12.94,0.292-18.409,2.641-20.518c2.586-2.323,6.161-2.895,9.809-1.568
				c4.905,1.783,8.611,6.585,9.479,12.263c3.775,7.489,7.028,23.775,9.899,38.154c2.233,11.185,5.014,25.104,6.771,26.103
				c0.132,0.021,0.186,0.048,0.299,0.12c0.282,0.18,0.534,0.189,0.87,0.036c6.589-3.013,16.882-47.769,18.534-58.979
				c2.749-12.569,10.263-16.97,16.1-15.767c5.331,1.1,10.144,7.05,8.191,17.526c0.725,3.869-2.118,15.542-6.769,34.066
				c-5.429,21.624-12.171,48.481-11.426,61.986c9.402,8.452,9.792,16.473,10.434,29.666l0.078,1.593
				c0.003,0.062,0,0.123-0.008,0.184c-0.521,3.85-3.616,23.377-13.37,29.845C580.87,809.512,578.714,810.183,576.45,810.183z"/>
		</g>
		<g id="path4099">
			<path d="M517.44,810.897c-0.078,0-0.157-0.009-0.237-0.028c-12.02-2.919-20.987-43.495-19.376-65.393
				c0.04-0.552,0.524-0.973,1.07-0.924c0.551,0.04,0.965,0.52,0.924,1.07c-1.644,22.351,7.814,60.865,17.854,63.303
				c0.536,0.13,0.866,0.671,0.735,1.208C518.299,810.59,517.89,810.897,517.44,810.897z"/>
		</g>
		<g id="path4105">
			<path d="M499.275,746.31c-0.412,0-0.798-0.256-0.942-0.666c-1.612-4.554-2.664-8.008-3.682-11.349
				c-0.527-1.732-1.056-3.465-1.66-5.352c-2.076-7.536,0.171-11.613,2.42-13.714c3.146-2.939,8.247-3.763,13-2.098
				c4.223,1.479,7.076,4.63,7.634,8.43l3.244,13.706c0.127,0.538-0.206,1.076-0.743,1.204c-0.545,0.123-1.076-0.206-1.204-0.743
				l-3.26-13.791c-0.464-3.136-2.825-5.69-6.332-6.918c-3.994-1.4-8.405-0.729-10.974,1.671c-2.646,2.472-3.293,6.512-1.869,11.682
				c0.597,1.857,1.127,3.6,1.657,5.34c1.011,3.319,2.057,6.752,3.653,11.264c0.185,0.521-0.088,1.093-0.608,1.276
				C499.499,746.291,499.385,746.31,499.275,746.31z"/>
		</g>
		<g id="path4107_1_">
			<path d="M518.594,736.64c-0.42,0-0.811-0.267-0.949-0.687l-6.969-21.126c-0.026-0.078-0.042-0.158-0.048-0.24
				c-0.731-9.953,5.714-14.291,11.455-14.982c5.698-0.688,12.152,1.896,13.077,7.402l3.57,19.021
				c0.103,0.543-0.255,1.065-0.798,1.167c-0.54,0.102-1.065-0.255-1.167-0.798l-3.574-19.039c-0.721-4.29-6.188-6.323-10.87-5.768
				c-5.075,0.611-10.276,4.277-9.708,12.729l6.93,21.007c0.174,0.524-0.111,1.09-0.636,1.263
				C518.803,736.624,518.698,736.64,518.594,736.64z"/>
		</g>
	</g>
</g>
<g id="bkgd">
	<path d="M226.49,303.592h14.977c0.116-1.038,0.163-2.099,0.163-3.185c0-5.089-1.367-9.863-3.753-13.975
		c2.468-6.555,2.38-12.117-0.923-15.442c-3.14-3.128-11.564-2.62-21.092,1.599c-0.703-0.053-1.415-0.081-2.133-0.081
		c-13.073,0-24.041,8.997-27.074,21.119c4.102-5.252,8.416-9.059,14.179-11.831c-0.524,0.491-3.581,3.532-4.097,4.046
		c-15.197,15.195-19.991,35.043-14.833,40.201c3.92,3.921,11.024,3.258,19.184-0.739c3.796,1.933,8.09,3.023,12.642,3.023
		c12.253,0,22.638-7.889,26.4-18.874h-15.092c-2.077,3.832-6.141,6.438-10.8,6.438c-4.663,0-8.724-2.606-10.801-6.438
		c-0.923-1.73-1.454-3.715-1.454-5.815v-0.046H226.49z M202.007,296.231c0.345-6.161,5.468-11.075,11.723-11.075
		c6.253,0,11.377,4.914,11.723,11.075H202.007z M236.817,274.088c2.126,2.149,2.073,6.104,0.255,11.04
		c-3.118-4.752-7.646-8.496-12.995-10.635C229.795,272.042,234.446,271.718,236.817,274.088z M185.838,325.066
		c-2.714-2.715-1.896-8.414,1.603-15.28c2.176,6.108,6.416,11.235,11.885,14.539C193.27,327.072,188.313,327.541,185.838,325.066z"
		/>
	<circle id="cricle" fill="none" stroke="#222" stroke-width="5" stroke-miterlimit="10" cx="210.927" cy="242.333" r="111.5"/>
	<g>
		<path d="M114.189,233.434l0.126-1.402l9.963-3.102l-9.247-4.848l0.122-1.354l10.799,5.806l-0.101,1.115L114.189,233.434z"/>
		<path d="M115.481,220.004l0.253-1.386l1.338,0.243l-0.252,1.386L115.481,220.004z M118.614,220.494l0.221-1.213l8.141,1.483
			l-0.221,1.212L118.614,220.494z"/>
		<path d="M123.332,217.75l-0.031-0.009c-2.261-0.588-3.723-2.853-3.114-5.191c0.395-1.518,1.275-2.298,2.259-2.836l0.631,1.008
			c-0.831,0.462-1.559,1.033-1.841,2.117c-0.423,1.626,0.634,3.224,2.353,3.671l0.031,0.008c1.734,0.451,3.443-0.46,3.878-2.133
			c0.267-1.021-0.039-1.944-0.556-2.757l0.91-0.573c0.688,1.038,1.089,2.168,0.698,3.67
			C127.941,217.063,125.577,218.333,123.332,217.75z"/>
		<path d="M127.958,208.455l-4.699-1.689l-0.39,1.084l-1.024-0.368l0.391-1.084l-2.35-0.846l0.417-1.159l2.35,0.845l0.888-2.47
			l1.024,0.368l-0.889,2.47l4.549,1.636c0.948,0.342,1.484-0.061,1.767-0.844c0.141-0.392,0.185-0.75,0.135-1.228l0.994,0.357
			c0.064,0.482,0.028,0.963-0.173,1.521C130.498,208.297,129.539,209.024,127.958,208.455z"/>
		<path d="M127.885,202.959l-0.029-0.014c-2.118-0.987-3.147-3.479-2.093-5.743c1.048-2.249,3.589-3.079,5.707-2.092l0.029,0.014
			c2.118,0.986,3.141,3.493,2.086,5.757C132.537,203.131,130.003,203.946,127.885,202.959z M130.994,196.284l-0.029-0.014
			c-1.61-0.75-3.492-0.16-4.229,1.421c-0.758,1.625,0.042,3.358,1.624,4.095l0.029,0.014c1.61,0.75,3.471,0.169,4.208-1.413
			C133.354,198.761,132.576,197.021,130.994,196.284z"/>
		<path d="M129.11,191.025l0.624-1.062l1.862,1.094c-0.879-1.221-1.126-2.758-0.277-4.077l1.146,0.673l-0.049,0.082
			c-0.916,1.56-0.544,3.484,1.608,4.748l2.841,1.67l-0.623,1.062L129.11,191.025z"/>
		<path d="M141.097,191.289l-0.549-0.908c0.402-0.203,0.695-0.446,1.004-0.874c0.431-0.598,0.391-1.199-0.268-2.284l-8.886-1.766
			l0.795-1.104l7.355,1.59l-4.044-6.187l0.767-1.065l4.904,7.812c0.979,1.572,1.017,2.587,0.287,3.6
			C142.062,190.662,141.645,190.993,141.097,191.289z"/>
		<path d="M143.332,173.461l-0.787,0.819l-0.772-0.742l0.786-0.819l-0.519-0.498c-0.681-0.654-1.022-1.337-1.036-1.993
			c-0.012-0.588,0.248-1.181,0.769-1.723c0.398-0.416,0.711-0.648,1.092-0.837l0.772,0.742c-0.402,0.234-0.692,0.421-0.98,0.721
			c-0.665,0.692-0.582,1.438,0.271,2.257l0.484,0.466l1.817-1.892l0.761,0.73l-1.806,1.881l5.18,4.974l-0.853,0.889L143.332,173.461
			z"/>
		<path d="M148.853,172.128l-0.021-0.024c-1.535-1.76-1.465-4.453,0.416-6.094c1.868-1.629,4.525-1.357,6.061,0.403l0.021,0.023
			c1.535,1.76,1.452,4.464-0.428,6.104C153.032,174.17,150.387,173.888,148.853,172.128z M154.397,167.292l-0.021-0.023
			c-1.167-1.338-3.124-1.562-4.438-0.417c-1.351,1.178-1.322,3.084-0.176,4.398l0.021,0.023c1.167,1.339,3.102,1.562,4.416,0.415
			C155.549,170.511,155.543,168.606,154.397,167.292z"/>
		<path d="M154.779,161.731l1.001-0.719l1.261,1.755c-0.309-1.473,0.087-2.979,1.398-3.843l0.775,1.079l-0.078,0.057
			c-1.47,1.055-1.909,2.967-0.452,4.995l1.924,2.678l-1.001,0.72L154.779,161.731z"/>
		<path d="M163.621,152.508l1.104-0.612l5.427,9.795l-1.105,0.612L163.621,152.508z"/>
		<path d="M169.211,152.784l1.123-0.506l0.592,1.312c0.128-1.04,0.62-2.052,1.918-2.638c1.823-0.821,3.44-0.076,4.25,1.718
			l2.11,4.683l-1.123,0.506l-1.986-4.405c-0.631-1.4-1.784-1.934-3.111-1.335c-1.299,0.585-1.834,1.968-1.196,3.383l1.947,4.317
			l-1.123,0.507L169.211,152.784z"/>
		<path d="M180.931,154.42l-1.633-4.718l-1.088,0.377l-0.356-1.028l1.089-0.377l-0.816-2.359l1.164-0.402l0.816,2.358l2.48-0.858
			l0.355,1.028l-2.479,0.858l1.58,4.567c0.33,0.952,0.979,1.117,1.766,0.845c0.394-0.136,0.7-0.327,1.04-0.665l0.346,0.998
			c-0.335,0.354-0.731,0.626-1.291,0.819C182.647,156.298,181.48,156.008,180.931,154.42z"/>
		<path d="M190.021,153.023c1.102-0.278,1.764-0.925,2.243-1.771l0.913,0.479c-0.579,1.104-1.404,1.956-2.925,2.341
			c-2.203,0.557-4.431-0.68-5.062-3.179c-0.588-2.327,0.57-4.602,2.79-5.162c2.374-0.6,4.218,0.948,4.814,3.307
			c0.027,0.109,0.059,0.233,0.09,0.423l-6.362,1.608C187.12,152.716,188.608,153.38,190.021,153.023z M191.446,148.799
			c-0.509-1.423-1.66-2.453-3.243-2.053c-1.381,0.349-2.146,1.764-1.925,3.359L191.446,148.799z"/>
		<path d="M194.422,144.514l1.218-0.191l0.336,2.134c0.387-1.454,1.418-2.62,2.977-2.801l0.207,1.312l-0.095,0.016
			c-1.786,0.28-3.039,1.79-2.651,4.256l0.513,3.257l-1.218,0.191L194.422,144.514z"/>
		<path d="M201.221,143.518l1.229-0.08l0.093,1.437c0.485-0.929,1.3-1.703,2.721-1.796c1.995-0.13,3.247,1.136,3.375,3.099
			l0.333,5.123l-1.229,0.08l-0.312-4.82c-0.1-1.532-0.992-2.436-2.444-2.341c-1.421,0.092-2.407,1.198-2.306,2.746l0.307,4.725
			l-1.229,0.08L201.221,143.518z"/>
		<path d="M214.967,150.57c1.136,0.049,1.955-0.381,2.657-1.056l0.738,0.721c-0.872,0.892-1.906,1.473-3.473,1.405
			c-2.271-0.098-4.052-1.92-3.94-4.495c0.103-2.398,1.864-4.245,4.151-4.147c2.446,0.105,3.77,2.117,3.665,4.548
			c-0.005,0.111-0.01,0.239-0.034,0.431l-6.557-0.281C212.276,149.445,213.512,150.507,214.967,150.57z M217.543,146.932
			c-0.08-1.51-0.889-2.826-2.52-2.896c-1.423-0.061-2.562,1.076-2.806,2.667L217.543,146.932z"/>
		<path d="M221.018,149.726l0.647-4.951l-1.143-0.149l0.142-1.079l1.143,0.149l0.323-2.476l1.223,0.16l-0.324,2.475l2.603,0.341
			l-0.141,1.079l-2.603-0.34l-0.627,4.792c-0.131,1,0.377,1.438,1.202,1.545c0.412,0.055,0.772,0.021,1.228-0.13l-0.137,1.048
			c-0.458,0.166-0.935,0.232-1.521,0.156C221.715,152.173,220.8,151.392,221.018,149.726z"/>
		<path d="M234.287,142.926l7.775,2.254l-0.32,1.106l-6.562-1.902l-1.064,3.672l5.869,1.702l-0.32,1.106l-5.87-1.702l-1.092,3.765
			l6.638,1.925l-0.32,1.106l-7.852-2.276L234.287,142.926z"/>
		<path d="M244.99,153.84l-1.304-4.955l1.298,0.545l1.019,3.898l3.497-2.003l1.269,0.533l-4.453,2.504l1.369,5.174l-1.313-0.552
			l-1.054-4.104l-3.683,2.116l-1.27-0.533L244.99,153.84z"/>
		<path d="M253.072,152.979l1.076,0.601l-0.812,1.453c1.071-0.539,2.337-0.804,3.665-0.063c1.732,0.967,2.688,3.296,1.362,5.672
			l-0.016,0.028c-1.317,2.362-3.803,2.809-5.55,1.834c-1.342-0.749-1.803-1.959-1.91-3.081l-2.02,3.619l-1.076-0.6L253.072,152.979z
			 M257.236,160.067l0.016-0.027c0.951-1.705,0.386-3.45-0.984-4.215c-1.342-0.748-3.245-0.326-4.165,1.323l-0.016,0.028
			c-0.936,1.677-0.287,3.505,1.055,4.253C254.539,162.209,256.262,161.814,257.236,160.067z"/>
		<path d="M264.549,155.809l1.022,0.687l-6.517,9.691l-1.022-0.688L264.549,155.809z"/>
		<path d="M263.321,164.056l0.02-0.025c1.455-1.826,4.117-2.242,6.068-0.688c1.939,1.544,2.15,4.207,0.696,6.033l-0.021,0.025
			c-1.454,1.826-4.129,2.232-6.081,0.678C262.064,168.536,261.866,165.883,263.321,164.056z M269.077,168.639l0.02-0.024
			c1.106-1.389,0.975-3.354-0.39-4.44c-1.401-1.116-3.271-0.745-4.357,0.619l-0.021,0.024c-1.105,1.39-0.977,3.332,0.388,4.418
			C266.118,170.352,267.99,170.003,269.077,168.639z"/>
		<path d="M274.632,168.037l0.888,0.855l-1.5,1.556c1.394-0.569,2.946-0.45,4.03,0.685l-0.922,0.956l-0.069-0.066
			c-1.302-1.255-3.261-1.344-4.994,0.453l-2.288,2.373l-0.887-0.855L274.632,168.037z"/>
		<path d="M276.227,180.334c0.747,0.856,1.622,1.155,2.595,1.199l-0.014,1.032c-1.247-0.019-2.38-0.368-3.41-1.552
			c-1.493-1.714-1.397-4.26,0.546-5.952c1.811-1.577,4.362-1.571,5.866,0.154c1.608,1.847,1.062,4.191-0.773,5.79
			c-0.084,0.073-0.181,0.157-0.336,0.271l-4.311-4.948C275.189,177.608,275.271,179.236,276.227,180.334z M280.639,179.697
			c1.04-1.097,1.438-2.59,0.365-3.821c-0.936-1.074-2.544-1.116-3.866-0.198L280.639,179.697z"/>
		<path d="M285.787,180.38l0.723,0.997l-1.749,1.268c1.471-0.315,2.978,0.074,3.846,1.382l-1.075,0.778l-0.057-0.077
			c-1.061-1.464-2.974-1.896-4.994-0.432l-2.669,1.933l-0.723-0.997L285.787,180.38z"/>
		<path d="M289.364,192.121l5.812-2.932l0.569,1.129l-5.741,2.896c-2.156,1.087-2.795,2.842-1.829,4.756
			c0.929,1.843,2.634,2.452,4.818,1.35l5.813-2.931l0.568,1.128l-5.727,2.888c-2.914,1.47-5.271,0.562-6.531-1.938
			C285.872,195.996,286.536,193.546,289.364,192.121z"/>
		<path d="M290.988,203.817l1.041,0.281c-0.321,1.073-0.339,2.137-0.002,3.053c0.343,0.931,1.071,1.43,1.822,1.153l0.03-0.011
			c0.78-0.287,0.744-1.313,0.653-2.439c-0.102-1.344-0.179-2.85,1.248-3.374l0.029-0.012c1.337-0.491,2.631,0.294,3.194,1.825
			c0.349,0.946,0.404,2.119,0.172,3.107l-1.064-0.205c0.2-0.892,0.182-1.822-0.094-2.573c-0.337-0.916-1.033-1.324-1.679-1.087
			l-0.03,0.011c-0.735,0.271-0.667,1.337-0.602,2.489c0.082,1.333,0.091,2.796-1.305,3.31l-0.03,0.011
			c-1.472,0.542-2.774-0.359-3.344-1.906C290.62,206.338,290.603,204.947,290.988,203.817z"/>
		<path d="M294.545,215.255c0.285,1.1,0.937,1.757,1.787,2.23l-0.473,0.917c-1.108-0.572-1.966-1.391-2.36-2.908
			c-0.572-2.199,0.648-4.436,3.142-5.084c2.323-0.604,4.605,0.539,5.181,2.754c0.617,2.369-0.918,4.224-3.272,4.836
			c-0.108,0.028-0.232,0.061-0.422,0.093l-1.651-6.35C294.831,212.353,294.178,213.846,294.545,215.255z M298.776,216.651
			c1.42-0.518,2.441-1.676,2.03-3.256c-0.358-1.379-1.778-2.134-3.371-1.901L298.776,216.651z"/>
		<path d="M303.093,219.583l0.2,1.217l-2.132,0.352c1.457,0.376,2.633,1.398,2.825,2.957l-1.312,0.217l-0.016-0.095
			c-0.295-1.785-1.813-3.026-4.277-2.619l-3.253,0.537l-0.201-1.216L303.093,219.583z"/>
		<path d="M296.864,226.287l0.929,0.549c-0.595,0.949-0.896,1.97-0.814,2.942c0.082,0.988,0.652,1.663,1.449,1.598l0.032-0.003
			c0.829-0.069,1.067-1.068,1.279-2.178c0.26-1.322,0.587-2.795,2.102-2.921l0.031-0.003c1.42-0.118,2.459,0.984,2.594,2.61
			c0.084,1.005-0.174,2.15-0.662,3.042l-0.971-0.481c0.431-0.807,0.66-1.709,0.594-2.506c-0.081-0.973-0.643-1.553-1.328-1.495
			l-0.032,0.003c-0.781,0.064-0.999,1.11-1.242,2.238c-0.276,1.308-0.657,2.72-2.14,2.844l-0.032,0.003
			c-1.562,0.13-2.579-1.086-2.716-2.729C295.838,228.621,296.192,227.274,296.864,226.287z"/>
	</g>
</g>
</svg>