<?xml version="1.0" encoding="utf-8"?>
<!-- Generator: Adobe Illustrator 16.0.0, SVG Export Plug-In . SVG Version: 6.00 Build 0)  -->
<!DOCTYPE svg PUBLIC "-//W3C//DTD SVG 1.1//EN" "http://www.w3.org/Graphics/SVG/1.1/DTD/svg11.dtd">
<svg version="1.1" id="Layer_1" xmlns="http://www.w3.org/2000/svg" xmlns:xlink="http://www.w3.org/1999/xlink" x="0px" y="0px"
	 width="40px" height="40px" viewBox="0 0 1076.946 1076.947" enable-background="new 0 0 1076.946 1076.947"
	 xml:space="preserve">
<g>
	<circle id="circle" fill="#0D0F21" cx="538.473" cy="538.474" r="538.473"/>
	<path id="twitter" fill="#FFFFFF" d="M400.562,815.647c-2.594,0-5.188,0-7.782,0c-0.566-0.8-1.429-0.59-2.194-0.59
		c-5.263,0.004-10.472-0.616-15.703-1.117c-12.784-1.229-25.478-2.992-38.091-5.403c-49.035-9.37-94.625-27.464-136.897-53.972
		c-0.632-0.398-1.502-0.588-1.791-1.778c36.681,4.16,72.719,1.264,108.143-8.613c35.502-9.899,67.778-26.227,97.55-49.351
		c-9.583-0.043-18.174-1.151-26.571-3.166c-50.261-12.072-84.438-42.469-102.763-90.751c-1.183-3.114-0.894-3.466,2.062-2.948
		c18.196,3.192,36.294,2.595,54.289-1.461c1.325-0.299,2.887-0.217,4.118-1.508c-1.108-0.292-1.969-0.527-2.832-0.747
		c-44.702-11.407-76.736-38.126-95.938-79.994c-7.993-17.427-11.826-35.907-11.708-55.154c0.014-2.293,0.432-2.788,2.615-1.639
		c3.788,1.994,7.677,3.813,11.602,5.528c14.3,6.248,29.461,9,44.835,10.827c0.801,0.096,2.05,0.491,2.4-0.484
		c0.382-1.064-1.022-1.242-1.597-1.852c-0.068-0.071-0.16-0.119-0.24-0.178c-31.056-22.883-50.224-53.194-56.705-91.294
		c-2.963-17.419-2.615-34.82,1.203-52.146c2.962-13.442,7.696-26.175,14.295-38.233c1.611-2.942,1.596-2.931,3.665-0.418
		c14.808,17.984,31.106,34.515,48.861,49.583c36.794,31.225,77.887,55.062,123.287,71.477c20.102,7.267,40.696,12.783,61.66,16.741
		c16.201,3.059,32.609,4.937,49.076,6.124c2.854,0.206,3.369-0.316,2.605-3.277c-1.493-5.803-2.273-11.771-2.602-17.663
		c-0.734-13.219-0.206-26.414,2.619-39.474c6.631-30.667,21.57-56.447,45.197-77.04c24.542-21.391,53.271-32.646,85.754-34.272
		c5.149-0.258,10.311-0.007,15.48,0.439c5.038,0.436,10.105,0.652,15.08,1.549c29.34,5.296,54.544,18.523,75.471,39.778
		c1.692,1.721,3.239,2.118,5.541,1.628c28.991-6.18,56.362-16.565,82.067-31.341c0.879-0.505,1.715-1.271,3.345-1.115
		c-10.956,32.386-30.881,57.312-59.479,75.705c0.647,0.328,0.925,0.601,1.154,0.566c19.053-2.819,37.819-6.85,55.97-13.412
		c7.111-2.572,14.152-5.335,21.227-8.011c0,0.199,0,0.399,0,0.599c-0.462,0.503-0.991,0.959-1.374,1.516
		c-18.145,26.488-40.091,49.314-65.936,68.362c-1.771,1.306-2.267,2.674-2.226,4.746c0.283,14.531,0.038,29.03-0.943,43.559
		c-1.008,14.936-3.05,29.689-5.84,44.337c-7.776,40.817-21.468,79.597-40.912,116.325c-24.253,45.818-55.714,85.909-95.498,119.267
		c-67.173,56.325-145.16,84.615-232.24,89.156c-0.943,0.049-2.02-0.366-2.784,0.59c-2.594,0-5.188,0-7.783,0
		c-0.729-0.704-1.654-0.593-2.544-0.594c-5.885-0.008-11.771-0.006-17.657,0C402.217,815.054,401.293,814.953,400.562,815.647z"/>
</g>
</svg>
